<?xml version="1.0" standalone="no"?>
<!DOCTYPE svg PUBLIC "-//W3C//DTD SVG 20010904//EN"
 "http://www.w3.org/TR/2001/REC-SVG-20010904/DTD/svg10.dtd">
<svg version="1.0" xmlns="http://www.w3.org/2000/svg"
 width="16.000000pt" height="16.000000pt" viewBox="0 0 16.000000 16.000000"
 preserveAspectRatio="xMidYMid meet">
<metadata>
Created by potrace 1.11, written by Peter Selinger 2001-2013
</metadata>
<g transform="translate(0.000000,16.000000) scale(0.008290,-0.008290)"
fill="#000000" stroke="none">
<path d="M355 1613 c-3 -10 -6 -110 -5 -223 1 -113 1 -220 1 -237 l-1 -33 -65
0 c-77 0 -73 12 -45 -150 11 -63 20 -118 20 -122 0 -5 20 -8 45 -8 l45 0 0
-239 c0 -132 3 -246 6 -255 5 -14 27 -16 140 -16 l134 0 0 255 0 255 270 0
c247 0 274 -2 308 -19 108 -56 162 -181 162 -378 l0 -113 141 0 142 0 -6 143
c-8 202 -43 311 -142 446 l-45 61 41 52 c98 125 138 247 146 455 l6 142 -646
0 c-605 1 -645 0 -652 -16z m995 -277 c0 -27 -41 -111 -76 -152 -33 -41 -72
-61 -124 -65 -14 0 -136 -1 -272 0 l-248 1 0 115 0 115 360 0 c304 0 360 -2
360 -14z"/>
</g>
</svg>
